<svg xmlns="http://www.w3.org/2000/svg" width="30.114" height="30.113" viewBox="0 0 30.114 30.113">
  <path id="パス_96" data-name="パス 96" d="M221.87,39.009h-4.9a9.752,9.752,0,0,0-9.339-9.338v-4.9a.407.407,0,1,0-.814,0v4.9a9.751,9.751,0,0,0-9.339,9.338h-4.9a.407.407,0,0,0,0,.814h4.9a9.751,9.751,0,0,0,9.339,9.339v4.9a.407.407,0,0,0,.814,0v-4.9a9.752,9.752,0,0,0,9.339-9.339h4.9a.407.407,0,1,0,0-.814Zm-6.532,0H209.62a2.432,2.432,0,0,0-1.993-1.993V31.3A8.135,8.135,0,0,1,215.337,39.009ZM206.813,31.3v5.718a2.433,2.433,0,0,0-1.994,1.993H199.1A8.137,8.137,0,0,1,206.813,31.3ZM199.1,39.823h5.718a2.433,2.433,0,0,0,1.994,1.994v5.718A8.135,8.135,0,0,1,199.1,39.823Zm8.525,7.712V41.817a2.431,2.431,0,0,0,1.993-1.994h5.717A8.135,8.135,0,0,1,207.627,47.534Z" transform="translate(-192.163 -24.359)" fill="#fff"/>
</svg>
