<svg data-name="レイヤー 1" xmlns="http://www.w3.org/2000/svg" width="1200" height="1200" viewBox="0 0 1200 1200"><path fill="#efefef" d="M-.19-.19h1200.38v1200.38H-.19z"/><path fill="#d3d3d4" d="M568.94 569.87v63.34l65.22-31.67-65.22-31.67z"/><path fill="#b3b3b3" d="M686.97 658.84h.19v21.69h-.19z"/><path d="M512.84 512.84v174.32h174.32V512.84zm109.07 12.45H643v15.65h-21.09zm-32.54 0h21v15.65h-21zm-32.53 0h21v15.65h-21zm-31.55 0h20.07v15.65h-20.07zm20.07 149.42h-20.07v-15.87h20.07zm32.53 0h-21v-15.87h21zm32.53 0h-21v-15.87h21zm32.54 0h-21.05v-15.87H643zm31.75 0h-20.27v-15.87h20.27zm0-26H525.29v-97.63h149.42zm0-107.77h-20.27v-15.65h20.27z" fill="#d3d3d4"/></svg>