<svg xmlns="http://www.w3.org/2000/svg" width="28" height="28" viewBox="0 0 28 28">
  <g id="icon-check-focus" transform="translate(-116 -5929)">
    <g id="グループ_17361" data-name="グループ 17361" transform="translate(116 5929)">
      <rect id="長方形_23876" data-name="長方形 23876" width="28" height="28" fill="#189bf5"/>
    </g>
    <g id="icon-check" transform="translate(118 5931)">
      <g id="長方形_23876-2" data-name="長方形 23876" fill="#fff" stroke="#b6bdc1" stroke-width="1">
        <rect width="24" height="24" stroke="none"/>
        <rect x="0.5" y="0.5" width="23" height="23" fill="none"/>
      </g>
      <g id="グループ_17345" data-name="グループ 17345" transform="translate(1 1)" opacity="0">
        <g id="グループ_17346" data-name="グループ 17346">
          <rect id="長方形_23876-3" data-name="長方形 23876" width="22" height="22" fill="#084fa2"/>
          <path id="Icon_awesome-check" data-name="Icon awesome-check" d="M5.434,16.274l-5.2-5.2a.8.8,0,0,1,0-1.131L1.366,8.812a.8.8,0,0,1,1.131,0l3.5,3.5,7.5-7.5a.8.8,0,0,1,1.131,0l1.131,1.131a.8.8,0,0,1,0,1.131l-9.2,9.2A.8.8,0,0,1,5.434,16.274Z" transform="translate(3 0.457)" fill="#fff"/>
        </g>
      </g>
    </g>
  </g>
</svg>
